<?xml version="1.0" encoding="UTF-8"?>
<svg id="Vector" xmlns="http://www.w3.org/2000/svg" xmlns:xlink="http://www.w3.org/1999/xlink" viewBox="0 0 1080 600">
  <defs>
    <style>
      .cls-1 {
        mask: url(#mask);
      }

      .cls-2 {
        fill: url(#linear-gradient);
      }

      .cls-2, .cls-3, .cls-4 {
        stroke-width: 0px;
      }

      .cls-3 {
        fill: url(#linear-gradient-2);
      }

      .cls-5 {
        filter: url(#luminosity-invert-noclip);
      }

      .cls-4 {
        fill: #fff;
      }
    </style>
    <filter id="luminosity-invert-noclip" x="44.5" y="-60.43" width="991" height="712.46" color-interpolation-filters="sRGB" filterUnits="userSpaceOnUse">
      <feColorMatrix result="cm" values="-1 0 0 0 1 0 -1 0 0 1 0 0 -1 0 1 0 0 0 1 0"/>
      <feFlood flood-color="#fff" result="bg"/>
      <feBlend in="cm" in2="bg"/>
    </filter>
    <mask id="mask" x="44.5" y="-60.43" width="991" height="712.46" maskUnits="userSpaceOnUse">
      <g class="cls-5">
        <g>
          <circle id="Circle_Outline" data-name="Circle Outline" class="cls-4" cx="540.5" cy="299.5" r="210"/>
          <rect class="cls-4" x="330.5" y="-60.43" width="420.01" height="712.46"/>
        </g>
      </g>
    </mask>
    <linearGradient id="linear-gradient" x1="540" y1="583.48" x2="540" y2="13.88" gradientUnits="userSpaceOnUse">
      <stop offset=".2" stop-color="#6bc8fe"/>
      <stop offset=".5" stop-color="#c084fc"/>
      <stop offset=".8" stop-color="#ef80c0"/>
    </linearGradient>
    <linearGradient id="linear-gradient-2" x1="540.5" y1="583.19" x2="540.5" y2="16.27" gradientUnits="userSpaceOnUse">
      <stop offset=".2" stop-color="#5bcefa"/>
      <stop offset=".5" stop-color="#c084fc"/>
      <stop offset=".8" stop-color="#f471b5"/>
    </linearGradient>
  </defs>
  <g class="cls-1">
    <path id="Waveform" class="cls-2" d="M77.54,396.98h0c-18.25,0-33.04-14.79-33.04-33.04v-127.87c0-18.25,14.79-33.04,33.04-33.04h0c18.25,0,33.04,14.79,33.04,33.04v127.87c0,18.25-14.79,33.04-33.04,33.04ZM317.5,403.59v-207.66c0-18.25-14.79-33.04-33.04-33.04h0c-18.25,0-33.04,14.79-33.04,33.04v207.66c0,18.25,14.79,33.04,33.04,33.04h0c18.25,0,33.04-14.79,33.04-33.04ZM213.5,469.74V130.32c0-18.25-14.79-33.04-33.04-33.04h0c-18.25,0-33.04,14.79-33.04,33.04v339.42c0,18.25,14.79,33.04,33.04,33.04h0c18.25,0,33.04-14.79,33.04-33.04ZM522.26,586.46V12.54c0-18.25-14.79-33.04-33.04-33.04h0c-18.25,0-33.04,14.79-33.04,33.04v573.91c0,18.25,14.79,33.04,33.04,33.04h0c18.25,0,33.04-14.79,33.04-33.04ZM419.7,532.67V67.05c0-18.25-14.79-33.04-33.04-33.04h0c-18.25,0-33.04,14.79-33.04,33.04v465.62c0,18.25,14.79,33.04,33.04,33.04h0c18.25,0,33.04-14.79,33.04-33.04ZM1002.46,396.98h0c18.25,0,33.04-14.79,33.04-33.04v-127.87c0-18.25-14.79-33.04-33.04-33.04h0c-18.25,0-33.04,14.79-33.04,33.04v127.87c0,18.25,14.79,33.04,33.04,33.04ZM794.54,436.64h0c18.25,0,33.04-14.79,33.04-33.04v-207.66c0-18.25-14.79-33.04-33.04-33.04h0c-18.25,0-33.04,14.79-33.04,33.04v207.66c0,18.25,14.79,33.04,33.04,33.04ZM899.63,503.79h0c18.25,0,33.04-14.79,33.04-33.04V131.32c0-18.25-14.79-33.04-33.04-33.04h0c-18.25,0-33.04,14.79-33.04,33.04v339.42c0,18.25,14.79,33.04,33.04,33.04ZM590.78,620.5h0c18.25,0,33.04-14.79,33.04-33.04V13.54c0-18.25-14.79-33.04-33.04-33.04h0c-18.25,0-33.04,14.79-33.04,33.04v573.91c0,18.25,14.79,33.04,33.04,33.04ZM693.63,565.72h0c18.25,0,33.04-14.79,33.04-33.04V67.05c0-18.25-14.79-33.04-33.04-33.04h0c-18.25,0-33.04,14.79-33.04,33.04v465.62c0,18.25,14.79,33.04,33.04,33.04Z"/>
  </g>
  <path class="cls-3" d="M540.5,45.03c-53,0-96,43-96,96v160c0,53,43,96,96,96s96-43,96-96v-160c0-53-43-96-96-96ZM412.5,261.03c0-13.3-10.7-24-24-24s-24,10.7-24,24v40c0,89.1,66.2,162.7,152,174.4v33.6h-48c-13.3,0-24,10.7-24,24s10.7,24,24,24h144c13.3,0,24-10.7,24-24s-10.7-24-24-24h-48v-33.6c85.8-11.7,152-85.3,152-174.4v-40c0-13.3-10.7-24-24-24s-24,10.7-24,24v40c0,70.7-57.3,128-128,128s-128-57.3-128-128v-40Z"/>
</svg>